{
	"asset":{
		"generator":"Khronos glTF Blender I/O v3.6.27",
		"version":"2.0"
	},
	"scene":0,
	"scenes":[
		{
			"name":"Scene",
			"nodes":[
				0
			]
		}
	],
	"nodes":[
		{
			"mesh":0,
			"name":"Cube"
		}
	],
	"materials":[
		{
			"doubleSided":true,
			"name":"Material.003",
			"pbrMetallicRoughness":{
				"baseColorTexture":{
					"index":0
				},
				"metallicFactor":0,
				"roughnessFactor":0.5
			}
		}
	],
	"meshes":[
		{
			"name":"Mesh",
			"primitives":[
				{
					"attributes":{
						"POSITION":0,
						"NORMAL":1,
						"TEXCOORD_0":2
					},
					"indices":3,
					"material":0
				}
			]
		}
	],
	"textures":[
		{
			"sampler":0,
			"source":0
		}
	],
	"images":[
		{
			"bufferView":4,
			"mimeType":"image/png",
			"name":"TexturesCom_Tiles_Patterned9_New_1K_albedo (1)"
		}
	],
	"accessors":[
		{
			"bufferView":0,
			"componentType":5126,
			"count":14406,
			"max":[
				1.0000001192092896,
				1.0000001192092896,
				1.0000001192092896
			],
			"min":[
				-1.0000001192092896,
				-1.0000001192092896,
				-1.0000001192092896
			],
			"type":"VEC3"
		},
		{
			"bufferView":1,
			"componentType":5126,
			"count":14406,
			"type":"VEC3"
		},
		{
			"bufferView":2,
			"componentType":5126,
			"count":14406,
			"type":"VEC2"
		},
		{
			"bufferView":3,
			"componentType":5123,
			"count":36864,
			"type":"SCALAR"
		}
	],
	"bufferViews":[
		{
			"buffer":0,
			"byteLength":172872,
			"byteOffset":0,
			"target":34962
		},
		{
			"buffer":0,
			"byteLength":172872,
			"byteOffset":172872,
			"target":34962
		},
		{
			"buffer":0,
			"byteLength":115248,
			"byteOffset":345744,
			"target":34962
		},
		{
			"buffer":0,
			"byteLength":73728,
			"byteOffset":460992,
			"target":34963
		},
		{
			"buffer":0,
			"byteLength":2297329,
			"byteOffset":534720
		}
	],
	"samplers":[
		{
			"magFilter":9729,
			"minFilter":9987
		}
	],
	"buffers":[
		{
			"byteLength":2832052,
			"uri":"data:application/octet-stream;base64,"
		}
	]
}
