{
	"asset":{
		"generator":"Khronos glTF Blender I/O v3.6.27",
		"version":"2.0"
	},
	"scene":0,
	"scenes":[
		{
			"extras":{
				"SUBSTANCE_SHO_01_cycles_std":{},
				"loaded_sbsars":[
					{
						"id":"0782D0DB-290E-4483-A737-4FBD06E02775",
						"name":"TexturesCom_Tiles_Patterned14",
						"filename":"TexturesCom_Tiles_Patterned14.sbsar",
						"filepath":"C:\\Users\\user\\Downloads\\TexturesCom_Tiles_Patterned14.sbsar",
						"suffix":"",
						"icon":"NONE",
						"graphs":[
							{
								"index":"0",
								"id":"2147483651",
								"name":"Patterned Tiles 14",
								"material":{
									"name":"TexturesCom_Tiles_Patterned14",
									"shader":"01 cycles_std"
								},
								"parms_class_name":"SUBSTANCE_SGP_0782D0DB-290E-4483-A737-4FBD06E02775",
								"outputs_class_name":"SUBSTANCE_SGO_0782D0DB-290E-4483-A737-4FBD06E02775",
								"shader_preset_callback":1,
								"shader_preset_list":0,
								"tiling":{
									"x":3.0,
									"y":3.0,
									"z":3.0,
									"linked":1
								},
								"physical_size":{
									"x":1.0,
									"y":1.0,
									"z":1.0
								},
								"outputsize_exists":1,
								"randomseed_exists":1,
								"parm_groups":[
									{
										"index":0,
										"name":"General"
									}
								],
								"presets":[
									{
										"index":"0",
										"name":"Default",
										"value":"<sbspreset pkgurl=\"pkg://PatternedTiles14\" label=\"\">\n <presetinput identifier=\"$outputsize\" uid=\"3108369518\" type=\"8\" value=\"10,10\" />\n</sbspreset>",
										"icon":"LOCKED",
										"embedded":1
									},
									{
										"index":"1",
										"name":"Custom",
										"value":"<sbspreset pkgurl=\"pkg://PatternedTiles14\" label=\"\">\n <presetinput identifier=\"$outputsize\" uid=\"3108369518\" type=\"8\" value=\"10,10\" />\n</sbspreset>",
										"icon":"UNLOCKED",
										"embedded":0
									}
								],
								"parms":[
									{
										"name":"$outputsize",
										"label":"$outputsize",
										"type":"integer2",
										"widget":"NoWidget",
										"group":"General",
										"visible":1
									},
									{
										"name":"$randomseed",
										"label":"$randomseed",
										"type":"integer",
										"widget":"NoWidget",
										"group":"General",
										"visible":1
									},
									{
										"name":"Color",
										"label":"Color",
										"type":"float4",
										"widget":"Color",
										"group":"General",
										"visible":1
									},
									{
										"name":"Size",
										"label":"Size",
										"type":"integer",
										"widget":"Slider",
										"group":"General",
										"visible":1
									},
									{
										"name":"Roughness",
										"label":"Roughness",
										"type":"float",
										"widget":"Slider",
										"group":"General",
										"visible":1
									},
									{
										"name":"Age",
										"label":"Age",
										"type":"float",
										"widget":"Slider",
										"group":"General",
										"visible":1
									},
									{
										"name":"Normal_Format",
										"label":"Normal Format",
										"type":"integer",
										"widget":"Togglebutton",
										"group":"General",
										"visible":1
									}
								],
								"outputs":[
									{
										"id":"3418583647",
										"name":"baseColor",
										"identifier":"basecolor",
										"label":"Base Color",
										"usage":"baseColor",
										"filepath":"C:/Users/user/Documents/Adobe/Substance3DInBlender/export/TexturesCom_Tiles_Patterned14_baseColor.tga",
										"filename":"TexturesCom_Tiles_Patterned14_baseColor.tga"
									},
									{
										"id":"3418583645",
										"name":"normal",
										"identifier":"normal",
										"label":"Normal",
										"usage":"normal",
										"filepath":"C:/Users/user/Documents/Adobe/Substance3DInBlender/export/TexturesCom_Tiles_Patterned14_normal.png",
										"filename":"TexturesCom_Tiles_Patterned14_normal.png"
									},
									{
										"id":"3418583643",
										"name":"roughness",
										"identifier":"roughness",
										"label":"Roughness",
										"usage":"roughness",
										"filepath":"C:/Users/user/Documents/Adobe/Substance3DInBlender/export/TexturesCom_Tiles_Patterned14_roughness.tga",
										"filename":"TexturesCom_Tiles_Patterned14_roughness.tga"
									},
									{
										"id":"3418583641",
										"name":"metallic",
										"identifier":"metallic",
										"label":"Metallic",
										"usage":"metallic",
										"filepath":"C:/Users/user/Documents/Adobe/Substance3DInBlender/export/TexturesCom_Tiles_Patterned14_metallic.tga",
										"filename":"TexturesCom_Tiles_Patterned14_metallic.tga"
									},
									{
										"id":"3484178600",
										"name":"height",
										"identifier":"height",
										"label":"Height",
										"usage":"height",
										"filepath":"C:/Users/user/Documents/Adobe/Substance3DInBlender/export/TexturesCom_Tiles_Patterned14_height.png",
										"filename":"TexturesCom_Tiles_Patterned14_height.png"
									},
									{
										"id":"3532759398",
										"name":"ambientOcclusion",
										"identifier":"ambient_occlusion",
										"label":"Ambient Occlusion",
										"usage":"ambientOcclusion",
										"filepath":"C:/Users/user/Documents/Adobe/Substance3DInBlender/export/TexturesCom_Tiles_Patterned14_ambientOcclusion.tga",
										"filename":"TexturesCom_Tiles_Patterned14_ambientOcclusion.tga"
									}
								]
							}
						],
						"loading":"NONE",
						"load_success":1
					}
				],
				"sbsar_index":0,
				"SUBSTANCE_SGP_4436257F-2768-479D-B767-D88E6768E318":{},
				"SUBSTANCE_SGO_4436257F-2768-479D-B767-D88E6768E318":{},
				"SUBSTANCE_SHP_01_cycles_std":{},
				"SUBSTANCE_SGP_EE1F5AE5-59A2-4F84-870C-29A6CF5654A9":{},
				"SUBSTANCE_SGO_EE1F5AE5-59A2-4F84-870C-29A6CF5654A9":{},
				"SUBSTANCE_SGP_0782D0DB-290E-4483-A737-4FBD06E02775":{},
				"SUBSTANCE_SGO_0782D0DB-290E-4483-A737-4FBD06E02775":{}
			},
			"name":"Scene",
			"nodes":[
				0
			]
		}
	],
	"nodes":[
		{
			"mesh":0,
			"name":"Cube"
		}
	],
	"materials":[
		{
			"doubleSided":true,
			"name":"Material.003",
			"pbrMetallicRoughness":{
				"baseColorTexture":{
					"index":0
				},
				"metallicFactor":0,
				"roughnessFactor":0.5
			}
		}
	],
	"meshes":[
		{
			"name":"Mesh",
			"primitives":[
				{
					"attributes":{
						"POSITION":0,
						"TEXCOORD_0":1
					},
					"indices":2,
					"material":0
				}
			]
		}
	],
	"textures":[
		{
			"sampler":0,
			"source":0
		}
	],
	"images":[
		{
			"bufferView":3,
			"mimeType":"image/png",
			"name":"TexturesCom_Tiles_Portuguese_1K_albedo"
		}
	],
	"accessors":[
		{
			"bufferView":0,
			"componentType":5126,
			"count":6851,
			"max":[
				1.0000001192092896,
				1.0000001192092896,
				1.0000001192092896
			],
			"min":[
				-1.0000001192092896,
				-1.0000001192092896,
				-1.0000001192092896
			],
			"type":"VEC3"
		},
		{
			"bufferView":1,
			"componentType":5126,
			"count":6851,
			"type":"VEC2"
		},
		{
			"bufferView":2,
			"componentType":5123,
			"count":36864,
			"type":"SCALAR"
		}
	],
	"bufferViews":[
		{
			"buffer":0,
			"byteLength":82212,
			"byteOffset":0,
			"target":34962
		},
		{
			"buffer":0,
			"byteLength":54808,
			"byteOffset":82212,
			"target":34962
		},
		{
			"buffer":0,
			"byteLength":73728,
			"byteOffset":137020,
			"target":34963
		},
		{
			"buffer":0,
			"byteLength":1967842,
			"byteOffset":210748
		}
	],
	"samplers":[
		{
			"magFilter":9729,
			"minFilter":9987
		}
	],
	"buffers":[
		{
			"byteLength":2178592,
			"uri":"data:application/octet-stream;base64,"
		}
	]
}
