<svg width="243" height="243" viewBox="0 0 243 243" fill="none" xmlns="http://www.w3.org/2000/svg">
<path d="M119.439 213.186L122.199 213.421L112.366 234.481L109.648 234.25L103.516 211.831L106.276 212.066L111.215 230.919L111.385 230.933L119.439 213.186ZM117.697 221.591L106.572 220.644L106.771 218.309L117.896 219.256L117.697 221.591Z" fill="black"/>
<path d="M88.9216 220.795L91.2683 220.745C91.3109 221.145 91.4215 221.552 91.6 221.966C91.77 222.384 92.0522 222.766 92.4468 223.111C92.8413 223.456 93.3926 223.72 94.1005 223.905C95.0696 224.157 95.9354 224.144 96.6978 223.865C97.4515 223.592 97.917 223.115 98.0941 222.435C98.2516 221.83 98.156 221.295 97.8074 220.83C97.4588 220.365 96.8476 219.894 95.9737 219.417L93.7734 218.227C92.447 217.515 91.5289 216.714 91.0191 215.826C90.5074 214.944 90.3957 213.95 90.6838 212.843C90.92 211.936 91.3924 211.193 92.1009 210.614C92.8025 210.033 93.6709 209.658 94.7061 209.487C95.7414 209.316 96.8741 209.391 98.1044 209.711C99.7196 210.132 100.965 210.83 101.841 211.807C102.717 212.784 103.12 213.982 103.051 215.403L100.592 215.379C100.594 214.469 100.344 213.722 99.8436 213.136C99.336 212.549 98.5839 212.126 97.5873 211.866C96.4532 211.571 95.4902 211.577 94.6983 211.885C93.8976 212.197 93.4087 212.694 93.2316 213.374C93.0884 213.924 93.1609 214.435 93.4492 214.906C93.7357 215.384 94.2534 215.82 95.0023 216.213L97.4805 217.519C98.8413 218.24 99.7679 219.05 100.26 219.949C100.744 220.853 100.844 221.852 100.559 222.944C100.327 223.838 99.8701 224.563 99.1894 225.12C98.5018 225.675 97.6706 226.034 96.6957 226.199C95.7139 226.361 94.6663 226.298 93.5529 226.008C91.9858 225.6 90.845 224.936 90.1305 224.016C89.4091 223.094 89.0061 222.02 88.9216 220.795Z" fill="black"/>
<path d="M56.7801 208.278L57.9732 206.513L64.9991 211.262L63.806 213.027L56.7801 208.278ZM59.5629 214.891L57.4798 213.483L66.2135 200.561C66.6112 199.973 66.8242 199.474 66.8524 199.064C66.8707 198.656 66.7784 198.311 66.5753 198.028C66.3624 197.747 66.1029 197.503 65.7969 197.296C65.5675 197.141 65.3712 197.026 65.2082 196.95C65.0412 196.88 64.9076 196.824 64.8074 196.782L65.6485 194.624C65.8255 194.667 66.0584 194.747 66.3472 194.865C66.64 194.977 66.9806 195.165 67.3689 195.427C67.9574 195.825 68.4485 196.341 68.8424 196.976C69.2304 197.607 69.4348 198.306 69.4555 199.075C69.4703 199.839 69.2113 200.616 68.6784 201.404L59.5629 214.891Z" fill="black"/>
<path d="M53.6152 197.327L60.4265 190.22L62.2417 191.96L47.1448 207.712L45.3297 205.972L50.873 200.188L50.7192 200.041C49.8575 200.385 48.9778 200.472 48.08 200.3C47.1722 200.129 46.2542 199.598 45.3262 198.708C44.5211 197.937 43.9709 197.1 43.6755 196.197C43.3751 195.299 43.3752 194.36 43.6759 193.379C43.9665 192.398 44.5984 191.4 45.5714 190.385L52.766 182.878L54.5811 184.618L47.5045 192.001C46.6052 192.94 46.1533 193.899 46.149 194.878C46.1347 195.858 46.5556 196.758 47.4119 197.579C48.0067 198.149 48.6604 198.535 49.3729 198.736C50.0803 198.932 50.8009 198.919 51.5346 198.697C52.2632 198.471 52.9567 198.014 53.6152 197.327Z" fill="black"/>
<path d="M47.2129 175.157C48.1505 176.424 48.6795 177.725 48.7998 179.058C48.9102 180.39 48.6438 181.678 48.0005 182.922C47.3473 184.165 46.3469 185.285 44.9993 186.281C43.6516 187.278 42.2823 187.911 40.8913 188.18C39.4903 188.448 38.1742 188.352 36.9428 187.894C35.7016 187.434 34.6417 186.61 33.7633 185.422C33.2565 184.737 32.8702 183.976 32.6045 183.139C32.3388 182.302 32.2602 181.419 32.3687 180.491C32.4715 179.567 32.8222 178.631 33.4209 177.685C34.0195 176.739 34.9327 175.812 36.1604 174.904L37.0169 174.27L44.5174 184.412L42.7701 185.704L36.79 177.618C36.0477 178.167 35.4951 178.806 35.1323 179.533C34.7652 180.255 34.6138 181.012 34.6781 181.804C34.7382 182.59 35.0385 183.348 35.5791 184.079C36.1746 184.884 36.8897 185.433 37.7244 185.726C38.5492 186.017 39.3946 186.085 40.2607 185.93C41.1268 185.775 41.9225 185.43 42.6477 184.893L43.8126 184.032C44.8061 183.297 45.5217 182.503 45.9592 181.649C46.3869 180.794 46.5525 179.925 46.4561 179.042C46.354 178.164 46.001 177.316 45.3971 176.5C45.0043 175.969 44.5754 175.544 44.1101 175.225C43.635 174.905 43.13 174.7 42.5951 174.61C42.0544 174.524 41.4924 174.564 40.9088 174.731L40.0127 172.373C40.8271 172.088 41.665 172.003 42.5265 172.117C43.3823 172.235 44.214 172.547 45.0217 173.054C45.8237 173.565 46.5541 174.266 47.2129 175.157Z" fill="black"/>
<path d="M24.9428 154.608L34.355 151.725L35.0912 154.129L19.4449 158.921L18.7336 156.598L21.1784 155.85L21.116 155.646C20.2091 155.523 19.4002 155.161 18.6893 154.562C17.9716 153.965 17.4318 153.075 17.0699 151.893C16.7455 150.834 16.6789 149.841 16.8702 148.913C17.0547 147.987 17.5174 147.17 18.2583 146.46C18.9923 145.752 20.0249 145.195 21.3559 144.787L31.2979 141.743L32.0341 144.147L22.2551 147.141C21.0259 147.518 20.1662 148.13 19.6758 148.979C19.1786 149.829 19.1005 150.811 19.4416 151.925C19.6766 152.692 20.053 153.327 20.5709 153.83C21.0867 154.325 21.7167 154.649 22.4612 154.799C23.2056 154.95 24.0328 154.886 24.9428 154.608Z" fill="black"/>
<path d="M30.3948 133.466C30.5265 134.494 30.4523 135.453 30.1722 136.341C29.8851 137.229 29.4032 137.968 28.7267 138.556C28.0431 139.144 27.1729 139.506 26.1162 139.642C25.1863 139.761 24.4091 139.674 23.7845 139.382C23.1529 139.09 22.6323 138.659 22.2227 138.089C21.8131 137.518 21.4799 136.874 21.2232 136.155C20.9585 135.43 20.7285 134.697 20.5334 133.955C20.2803 132.985 20.0828 132.198 19.9409 131.593C19.7911 130.982 19.6171 130.546 19.419 130.285C19.22 130.017 18.9197 129.909 18.5181 129.96L18.4336 129.971C17.391 130.105 16.6174 130.494 16.1128 131.138C15.6073 131.776 15.428 132.669 15.5751 133.817C15.7275 135.008 16.1077 135.908 16.7156 136.517C17.3236 137.127 17.941 137.531 18.5679 137.73L18.0257 140.205C16.9853 139.909 16.1452 139.444 15.5055 138.809C14.8579 138.169 14.3712 137.444 14.0454 136.634C13.7118 135.817 13.4926 135 13.3879 134.183C13.3212 133.662 13.3079 133.055 13.3481 132.362C13.3804 131.664 13.5461 130.973 13.8453 130.29C14.1437 129.6 14.6497 128.995 15.3634 128.474C16.0772 127.953 17.0787 127.61 18.3679 127.445L29.0618 126.075L29.3811 128.569L27.1832 128.851L27.1994 128.977C27.5733 129.101 27.9863 129.335 28.4383 129.678C28.8904 130.021 29.2993 130.502 29.665 131.121C30.0307 131.74 30.274 132.522 30.3948 133.466ZM28.1059 133.372C27.9796 132.386 27.6794 131.58 27.2053 130.953C26.7304 130.319 26.1644 129.869 25.5073 129.602C24.8493 129.328 24.1821 129.235 23.5058 129.322L21.2233 129.614C21.3637 129.703 21.5097 129.921 21.6613 130.267C21.8051 130.606 21.9455 131.004 22.0825 131.459C22.2116 131.907 22.3323 132.347 22.4445 132.776C22.5489 133.2 22.6358 133.543 22.7053 133.806C22.8728 134.443 23.0878 135.032 23.3502 135.571C23.6046 136.104 23.9406 136.519 24.3582 136.817C24.7678 137.108 25.2896 137.213 25.9237 137.132C26.7902 137.021 27.4043 136.616 27.766 135.918C28.1198 135.214 28.2331 134.366 28.1059 133.372Z" fill="black"/>
<path d="M13.0868 111.937L15.2155 112.027L14.8556 120.499L12.7269 120.409L13.0868 111.937ZM8.91483 117.773L9.02154 115.261L24.6041 115.923C25.3137 115.953 25.8502 115.873 26.2138 115.682C26.5705 115.484 26.8161 115.225 26.9506 114.903C27.0783 114.575 27.15 114.226 27.1657 113.857C27.1774 113.58 27.1729 113.352 27.152 113.174C27.1241 112.995 27.1017 112.852 27.085 112.744L29.3632 112.329C29.4198 112.502 29.4736 112.743 29.5245 113.051C29.5825 113.359 29.6015 113.747 29.5816 114.215C29.5515 114.925 29.3694 115.614 29.0353 116.282C28.7016 116.943 28.213 117.484 27.5695 117.905C26.9264 118.318 26.1294 118.505 25.1786 118.464L8.91483 117.773Z" fill="black"/>
<path d="M30.9629 102.848L14.9666 99.4002L15.4963 96.9424L31.4926 100.39L30.9629 102.848ZM12.5699 97.5759C12.4666 98.055 12.2144 98.4329 11.8133 98.7097C11.4137 98.9796 10.9847 99.0652 10.5265 98.9664C10.0683 98.8677 9.71267 98.613 9.45967 98.2025C9.20817 97.785 9.13404 97.3368 9.23729 96.8577C9.34053 96.3786 9.59197 96.0042 9.99161 95.7343C10.3927 95.4575 10.8224 95.3685 11.2806 95.4672C11.7389 95.566 12.0937 95.8241 12.3452 96.2415C12.5982 96.6521 12.6731 97.0969 12.5699 97.5759Z" fill="black"/>
<path d="M36.1132 86.8255C35.5623 88.1963 34.7529 89.2679 33.6847 90.0404C32.6191 90.8063 31.3833 91.2435 29.9773 91.3521C28.5738 91.454 27.0879 91.1899 25.5194 90.5596C23.9378 89.9241 22.6724 89.0826 21.7231 88.0353C20.7765 86.9813 20.1836 85.8093 19.9443 84.519C19.7076 83.2222 19.8647 81.8884 20.4155 80.5177C20.9663 79.1469 21.7745 78.0786 22.84 77.3127C23.9082 76.5402 25.1473 76.1043 26.5573 76.005C27.97 75.8991 29.4671 76.1639 31.0487 76.7995C32.6172 77.4297 33.8714 78.2705 34.8114 79.3218C35.7541 80.3665 36.3437 81.5373 36.5804 82.8341C36.8197 84.1243 36.664 85.4548 36.1132 86.8255ZM34.0175 85.9834C34.4359 84.9422 34.5133 83.9782 34.2496 83.0915C33.9859 82.2048 33.484 81.4253 32.7438 80.7528C32.0037 80.0803 31.1262 79.5402 30.1113 79.1324C29.0964 78.7246 28.0859 78.506 27.0796 78.4767C26.0734 78.4474 25.165 78.6603 24.3545 79.1154C23.544 79.5704 22.9296 80.3186 22.5111 81.3598C22.0927 82.401 22.0187 83.3663 22.289 84.2557C22.5592 85.145 23.0677 85.9272 23.8145 86.6023C24.5612 87.2775 25.442 87.8189 26.4569 88.2267C27.4718 88.6346 28.479 88.8518 29.4787 88.8784C30.4783 88.9051 31.3801 88.6895 32.184 88.2318C32.9879 87.7741 33.5991 87.0247 34.0175 85.9834Z" fill="black"/>
<path d="M32.3644 70.9739L40.7466 76.135L39.4284 78.2759L25.4943 69.6964L26.7678 67.628L28.945 68.9686L29.0568 68.7871C28.5503 68.0249 28.2871 67.1789 28.2673 66.2493C28.2415 65.3159 28.5526 64.3231 29.2005 63.2707C29.7814 62.3273 30.4832 61.6209 31.306 61.1517C32.1227 60.6787 33.0421 60.4858 34.0643 60.5731C35.0805 60.6566 36.1813 61.0633 37.3666 61.7932L46.2206 67.2448L44.9024 69.3857L36.1936 64.0234C35.0989 63.3494 34.0711 63.1086 33.1103 63.301C32.1434 63.4897 31.3546 64.0799 30.7439 65.0718C30.3231 65.7552 30.0952 66.4572 30.0601 67.178C30.0287 67.8926 30.2023 68.5792 30.5809 69.2377C30.9595 69.8961 31.554 70.4749 32.3644 70.9739Z" fill="black"/>
<path d="M36.8781 44.4906L38.3176 45.7576C38.7548 46.1423 39.1509 46.6329 39.506 47.2292C39.8604 47.8155 40.1358 48.4647 40.3322 49.1769C40.5279 49.879 40.6087 50.5934 40.5745 51.3202L38.8419 51.6119C38.6577 50.8537 38.4149 50.1244 38.1136 49.424C37.8117 48.7136 37.3648 48.0979 36.773 47.5771L35.3015 46.282L36.8781 44.4906Z" fill="black"/>
<path d="M60.1003 35.7366L58.7446 37.6527C58.3976 37.4491 58.0049 37.2962 57.5663 37.1939C57.1287 37.0816 56.654 37.0815 56.142 37.1937C55.6301 37.3058 55.0895 37.5916 54.5204 38.0512C53.7412 38.6803 53.237 39.3842 53.0076 40.1627C52.7792 40.9313 52.8859 41.5892 53.3276 42.1362C53.7203 42.6225 54.2072 42.8638 54.7884 42.86C55.3696 42.8563 56.1118 42.645 57.015 42.226L59.2796 41.1643C60.641 40.5214 61.8306 40.2593 62.8482 40.3778C63.8615 40.4908 64.7272 40.9921 65.4456 41.8818C66.0345 42.6112 66.3511 43.4328 66.3951 44.3466C66.4447 45.2559 66.2304 46.1775 65.7521 47.1114C65.2738 48.0453 64.5401 48.9115 63.551 49.7102C62.2524 50.7587 60.9501 51.3447 59.644 51.4682C58.3379 51.5917 57.1344 51.2034 56.0333 50.3032L57.5152 48.3399C58.2453 48.8823 58.9945 49.1263 59.7629 49.0718C60.5369 49.0128 61.3245 48.6599 62.1257 48.0129C63.0375 47.2767 63.6052 46.4988 63.8289 45.6792C64.0537 44.8496 63.9452 44.1613 63.5034 43.6143C63.1465 43.1722 62.6928 42.9269 62.1425 42.8784C61.5876 42.8243 60.9295 42.9814 60.168 43.3498L57.6445 44.5658C56.2555 45.231 55.0532 45.4943 54.0376 45.3558C53.0232 45.2073 52.1612 44.6938 51.4518 43.8152C50.8718 43.0968 50.5603 42.2985 50.5175 41.4202C50.4803 40.5374 50.6854 39.6553 51.1328 38.7736C51.5858 37.8876 52.2599 37.0831 53.1551 36.3603C54.415 35.343 55.6272 34.8206 56.7917 34.7932C57.9618 34.7613 59.0646 35.0757 60.1003 35.7366Z" fill="black"/>
<path d="M89.276 17.3378L89.9858 19.3467L81.9901 22.1718L81.2803 20.1628L89.276 17.3378ZM82.3046 15.6429L84.6752 14.8053L89.8711 29.511C90.1077 30.1807 90.3822 30.6486 90.6947 30.9148C91.0116 31.172 91.3441 31.3031 91.6924 31.3081C92.045 31.304 92.3954 31.2405 92.7436 31.1174C93.0048 31.0251 93.2143 30.936 93.3723 30.8501C93.5279 30.7575 93.6523 30.6834 93.7457 30.6278L94.9802 32.5869C94.8408 32.704 94.6378 32.8435 94.3711 33.0055C94.1068 33.1742 93.7537 33.3367 93.3117 33.4928C92.6421 33.7294 91.9349 33.8173 91.1903 33.7565C90.4524 33.6933 89.7684 33.4416 89.1383 33.0014C88.5149 32.5588 88.0447 31.8888 87.7276 30.9915L82.3046 15.6429Z" fill="black"/>
<path d="M105.671 30.6596C104.215 30.9092 102.878 30.7818 101.661 30.2772C100.45 29.7714 99.4295 28.9484 98.5998 27.808C97.7771 26.6664 97.223 25.2626 96.9373 23.5965C96.6492 21.9165 96.7023 20.3978 97.0964 19.0403C97.4976 17.6817 98.1848 16.5622 99.158 15.682C100.138 14.8005 101.356 14.235 102.812 13.9853C104.268 13.7356 105.602 13.8637 106.813 14.3694C108.03 14.874 109.051 15.7006 109.875 16.8492C110.706 17.9966 111.265 19.4103 111.554 21.0903C111.839 22.7563 111.781 24.2652 111.379 25.6168C110.983 26.9673 110.295 28.0832 109.315 28.9647C108.342 29.8449 107.127 30.4099 105.671 30.6596ZM105.29 28.4335C106.396 28.2439 107.257 27.8043 107.874 27.1149C108.491 26.4255 108.891 25.5893 109.076 24.6065C109.26 23.6237 109.26 22.5932 109.076 21.5152C108.891 20.4372 108.547 19.4621 108.044 18.5899C107.542 17.7177 106.884 17.0558 106.072 16.6042C105.259 16.1526 104.3 16.0217 103.194 16.2113C102.088 16.401 101.227 16.844 100.612 17.5405C99.996 18.2369 99.5965 19.08 99.4131 20.0699C99.2298 21.0597 99.2305 22.0936 99.4154 23.1716C99.6002 24.2496 99.9433 25.2213 100.445 26.0865C100.946 26.9517 101.603 27.6065 102.414 28.0511C103.225 28.4957 104.184 28.6232 105.29 28.4335Z" fill="black"/>
<path d="M114.824 35.1364L114.824 12.6364L117.253 12.6364V15.2358H117.551C117.736 14.9517 117.991 14.5895 118.318 14.1491C118.652 13.7017 119.128 13.304 119.745 12.956C120.37 12.6009 121.216 12.4233 122.281 12.4233C123.659 12.4233 124.873 12.7678 125.924 13.4567C126.976 14.1456 127.796 15.1222 128.385 16.3864C128.975 17.6506 129.27 19.142 129.27 20.8608C129.27 22.5938 128.975 24.0959 128.385 25.3672C127.796 26.6314 126.979 27.6115 125.935 28.3075C124.891 28.9964 123.687 29.3409 122.324 29.3409C121.272 29.3409 120.431 29.1669 119.799 28.8189C119.167 28.4638 118.68 28.0625 118.339 27.6151C117.998 27.1605 117.736 26.7841 117.551 26.4858H117.338L117.338 35.1364H114.824ZM117.295 20.8182C117.295 22.054 117.476 23.1442 117.839 24.0888C118.201 25.0263 118.73 25.7614 119.426 26.294C120.122 26.8196 120.974 27.0824 121.983 27.0824C123.034 27.0824 123.911 26.8054 124.614 26.2514C125.324 25.6903 125.857 24.9375 126.212 23.9929C126.574 23.0412 126.755 21.983 126.755 20.8182C126.755 19.6676 126.578 18.6307 126.223 17.7074C125.875 16.777 125.346 16.0419 124.635 15.5021C123.932 14.9553 123.048 14.6818 121.983 14.6818C120.96 14.6818 120.101 14.9411 119.405 15.4595C118.709 15.9709 118.183 16.6882 117.828 17.6115C117.473 18.5277 117.295 19.5966 117.295 20.8182Z" fill="black"/>
<path d="M161.477 20.315L160.767 22.324L152.771 19.4989L153.481 17.4899L161.477 20.315ZM157.117 14.6168L159.488 15.4544L154.292 30.1601C154.055 30.8297 153.975 31.3663 154.051 31.7697C154.136 32.1688 154.312 32.4797 154.58 32.7024C154.857 32.9208 155.17 33.0915 155.518 33.2145C155.779 33.3068 155.998 33.3691 156.175 33.4014C156.354 33.4271 156.498 33.4476 156.605 33.4631L156.335 35.7629C156.153 35.7664 155.907 35.7474 155.598 35.7059C155.286 35.6712 154.91 35.5757 154.468 35.4195C153.798 35.1829 153.192 34.8071 152.651 34.292C152.117 33.7793 151.743 33.1537 151.529 32.4154C151.322 31.6794 151.377 30.8627 151.694 29.9654L157.117 14.6168Z" fill="black"/>
<path d="M164.932 40.0689L172.913 25.7833L175.108 27.0094L167.127 41.2951L164.932 40.0689ZM175.359 24.0258C174.931 23.7868 174.644 23.435 174.496 22.9704C174.355 22.5092 174.399 22.0741 174.628 21.6648C174.856 21.2556 175.204 20.9901 175.671 20.8685C176.143 20.7502 176.594 20.8106 177.022 21.0496C177.449 21.2886 177.734 21.6387 177.875 22.0998C178.022 22.5644 177.981 23.0013 177.753 23.4106C177.524 23.8198 177.173 24.0835 176.701 24.2017C176.234 24.3234 175.787 24.2648 175.359 24.0258Z" fill="black"/>
<path d="M193.643 33.2343L179.936 50.2096L177.98 48.6301L191.687 31.6548L193.643 33.2343Z" fill="black"/>
<path d="M190.254 60.767C189.212 59.5835 188.575 58.3326 188.342 57.0143C188.119 55.6968 188.275 54.3908 188.811 53.0964C189.356 51.8027 190.258 50.6021 191.516 49.4947C192.775 48.3874 194.085 47.6406 195.448 47.2545C196.822 46.869 198.141 46.8525 199.407 47.205C200.683 47.5581 201.809 48.2891 202.785 49.3981C203.348 50.0378 203.797 50.7635 204.133 51.5749C204.469 52.3864 204.622 53.2592 204.592 54.1934C204.568 55.1228 204.298 56.0843 203.782 57.078C203.266 58.0717 202.434 59.0729 201.288 60.0818L200.489 60.7856L192.155 51.3169L193.786 49.881L200.431 57.4304C201.124 56.8204 201.62 56.1375 201.92 55.3817C202.225 54.6311 202.311 53.8642 202.18 53.0809C202.053 52.3029 201.69 51.5726 201.089 50.8902C200.428 50.1385 199.669 49.6523 198.812 49.4316C197.966 49.2115 197.117 49.2153 196.268 49.4429C195.418 49.6706 194.654 50.0823 193.977 50.6782L192.89 51.6355C191.962 52.4519 191.316 53.304 190.953 54.1916C190.599 55.0799 190.508 55.9598 190.679 56.8312C190.855 57.6979 191.278 58.5125 191.949 59.2749C192.386 59.7707 192.849 60.1576 193.34 60.4354C193.84 60.7139 194.361 60.8754 194.902 60.92C195.448 60.9598 196.004 60.872 196.572 60.6566L197.665 62.9304C196.877 63.2828 196.049 63.4389 195.181 63.3986C194.319 63.3537 193.464 63.1129 192.616 62.6764C191.773 62.2352 190.986 61.5988 190.254 60.767Z" fill="black"/>
<path d="M202.712 77.1993L217.896 71.098L218.802 73.3519L216.429 74.3052L216.509 74.5029C217.446 74.4935 218.281 74.7513 219.012 75.2764C219.751 75.7988 220.318 76.5543 220.715 77.5428C221.118 78.5445 221.226 79.4695 221.038 80.3178C220.86 81.1701 220.441 81.9469 219.782 82.6483L219.845 82.8064C220.786 82.8801 221.643 83.2131 222.417 83.8054C223.197 84.395 223.806 85.2335 224.243 86.3209C224.788 87.6784 224.809 88.9597 224.306 90.1646C223.809 91.3668 222.668 92.3268 220.882 93.0444L210.72 97.1279L209.783 94.7949L219.945 90.7115C221.065 90.2614 221.743 89.6332 221.978 88.827C222.212 88.0208 222.163 87.2025 221.829 86.3721C221.4 85.3045 220.745 84.6072 219.863 84.2802C218.989 83.9506 218.06 83.983 217.078 84.3776L207.193 88.3498L206.24 85.9774L216.639 81.7986C217.502 81.4517 218.085 80.8923 218.387 80.1202C218.696 79.3456 218.673 78.5167 218.318 77.6336C218.074 77.0274 217.685 76.5255 217.15 76.128C216.618 75.7372 216.001 75.4955 215.297 75.4029C214.604 75.3144 213.884 75.4197 213.14 75.7189L203.65 79.5322L202.712 77.1993Z" fill="black"/>
<path d="M210.547 100.881C210.329 99.8677 210.321 98.9067 210.525 97.9982C210.736 97.0882 211.153 96.3116 211.778 95.6685C212.409 95.0239 213.245 94.5894 214.287 94.3649C215.203 94.1674 215.985 94.1878 216.632 94.4262C217.286 94.663 217.841 95.0483 218.298 95.582C218.754 96.1157 219.141 96.7298 219.458 97.4244C219.783 98.1244 220.074 98.8354 220.332 99.5574C220.666 100.502 220.93 101.27 221.122 101.861C221.323 102.457 221.534 102.876 221.753 103.12C221.974 103.37 222.283 103.452 222.678 103.367L222.762 103.349C223.789 103.128 224.527 102.675 224.975 101.989C225.425 101.311 225.528 100.406 225.284 99.2747C225.031 98.1014 224.576 97.2368 223.918 96.681C223.261 96.1253 222.611 95.7748 221.97 95.6297L222.3 93.1174C223.362 93.3245 224.239 93.7168 224.93 94.2944C225.629 94.8774 226.176 95.5588 226.569 96.3386C226.971 97.1239 227.258 97.9192 227.432 98.7246C227.543 99.2384 227.607 99.842 227.626 100.535C227.653 101.234 227.547 101.937 227.306 102.642C227.068 103.355 226.615 104.001 225.948 104.581C225.281 105.16 224.312 105.587 223.041 105.861L212.502 108.132L211.973 105.674L214.139 105.208L214.112 105.083C213.729 104.991 213.297 104.793 212.818 104.49C212.338 104.186 211.89 103.742 211.473 103.156C211.056 102.57 210.748 101.812 210.547 100.881ZM212.836 100.78C213.045 101.752 213.413 102.531 213.938 103.115C214.465 103.706 215.067 104.107 215.745 104.317C216.424 104.534 217.096 104.57 217.763 104.427L220.012 103.942C219.865 103.865 219.701 103.66 219.521 103.329C219.349 103.002 219.175 102.618 219 102.177C218.833 101.74 218.676 101.313 218.527 100.894C218.387 100.481 218.272 100.147 218.18 99.8903C217.959 99.2695 217.695 98.7016 217.388 98.1865C217.089 97.6769 216.719 97.2917 216.278 97.0308C215.845 96.7754 215.316 96.715 214.691 96.8496C213.837 97.0337 213.26 97.4887 212.959 98.2148C212.666 98.9463 212.625 99.8016 212.836 100.78Z" fill="black"/>
<path d="M222.747 112.722L212.912 113.14L212.805 110.628L229.154 109.933L229.257 112.36L226.703 112.469L226.712 112.682C227.558 113.03 228.25 113.583 228.787 114.342C229.331 115.101 229.629 116.098 229.682 117.333C229.729 118.439 229.543 119.418 229.124 120.267C228.712 121.116 228.059 121.791 227.163 122.291C226.274 122.791 225.134 123.07 223.744 123.13L213.355 123.571L213.249 121.059L223.467 120.625C224.751 120.57 225.737 120.194 226.426 119.497C227.121 118.799 227.444 117.868 227.395 116.705C227.361 115.903 227.156 115.193 226.782 114.577C226.408 113.967 225.879 113.495 225.197 113.162C224.515 112.828 223.698 112.682 222.747 112.722Z" fill="black"/>
<path d="M218.559 137.402L228.154 138.63L227.835 141.124L211.603 139.046L211.923 136.552L214.67 136.904L214.692 136.735C213.916 136.249 213.291 135.567 212.816 134.69C212.349 133.814 212.193 132.763 212.35 131.537C212.48 130.523 212.817 129.649 213.362 128.917C213.914 128.186 214.67 127.653 215.629 127.317C216.596 126.983 217.769 126.904 219.15 127.081L229.464 128.401L229.144 130.895L219 129.596C217.816 129.445 216.83 129.655 216.041 130.227C215.251 130.806 214.789 131.613 214.657 132.649C214.577 133.269 214.655 133.92 214.89 134.601C215.124 135.29 215.541 135.895 216.14 136.415C216.738 136.943 217.545 137.272 218.559 137.402Z" fill="black"/>
<path d="M223.406 157.209L221.368 156.585L223.951 148.151L225.989 148.774L223.406 157.209ZM209.569 146.509L227.374 151.962C228.271 152.237 228.953 152.676 229.422 153.28C229.891 153.884 230.171 154.568 230.264 155.332C230.357 156.096 230.289 156.851 230.061 157.598C229.88 158.189 229.684 158.656 229.475 159.001C229.266 159.345 229.092 159.597 228.954 159.755L227.088 158.426C227.167 158.316 227.27 158.162 227.397 157.963C227.523 157.772 227.639 157.502 227.745 157.156C227.988 156.362 227.963 155.726 227.671 155.251C227.376 154.782 226.842 154.428 226.068 154.191L208.832 148.913L209.569 146.509Z" fill="black"/>
<path d="M203.346 161.5C203.813 160.574 204.411 159.822 205.14 159.243C205.876 158.667 206.689 158.325 207.578 158.217C208.474 158.112 209.398 158.299 210.349 158.779C211.186 159.201 211.782 159.708 212.136 160.3C212.496 160.895 212.686 161.544 212.706 162.246C212.725 162.948 212.64 163.669 212.451 164.408C212.264 165.157 212.044 165.893 211.79 166.616C211.457 167.562 211.18 168.325 210.959 168.905C210.741 169.495 210.641 169.954 210.659 170.281C210.673 170.615 210.861 170.873 211.223 171.055L211.299 171.093C212.238 171.567 213.096 171.677 213.875 171.426C214.651 171.181 215.3 170.541 215.821 169.508C216.361 168.436 216.55 167.477 216.388 166.632C216.226 165.786 215.94 165.106 215.532 164.59L217.368 162.843C218.064 163.671 218.499 164.527 218.674 165.41C218.852 166.303 218.849 167.177 218.665 168.031C218.485 168.894 218.209 169.694 217.838 170.429C217.601 170.898 217.272 171.409 216.851 171.96C216.433 172.521 215.909 173 215.279 173.398C214.646 173.803 213.887 174.021 213.004 174.053C212.121 174.085 211.099 173.808 209.939 173.223L200.312 168.369L201.444 166.124L203.422 167.122L203.48 167.008C203.24 166.696 203.028 166.271 202.846 165.734C202.663 165.196 202.594 164.569 202.638 163.851C202.681 163.133 202.918 162.35 203.346 161.5ZM205.19 162.859C204.742 163.747 204.539 164.583 204.581 165.368C204.62 166.159 204.837 166.849 205.232 167.438C205.624 168.033 206.124 168.484 206.733 168.791L208.788 169.827C208.721 169.674 208.722 169.412 208.79 169.041C208.861 168.679 208.968 168.271 209.109 167.818C209.253 167.373 209.399 166.942 209.547 166.523C209.697 166.114 209.818 165.781 209.907 165.524C210.125 164.902 210.277 164.294 210.361 163.701C210.449 163.117 210.403 162.584 210.224 162.104C210.047 161.633 209.674 161.254 209.103 160.966C208.323 160.573 207.588 160.564 206.897 160.94C206.21 161.325 205.641 161.965 205.19 162.859Z" fill="black"/>
<path d="M194.221 176.364C195.133 175.13 196.21 174.284 197.451 173.824C198.692 173.364 200.001 173.272 201.378 173.548C202.755 173.824 204.1 174.448 205.413 175.42C206.75 176.408 207.747 177.525 208.406 178.772C209.066 180.029 209.358 181.314 209.28 182.625C209.203 183.947 208.726 185.202 207.848 186.389C207.163 187.314 206.376 188.021 205.484 188.51C204.592 188.999 203.663 189.253 202.696 189.27C201.728 189.288 200.791 189.05 199.885 188.556L201.38 186.535C202.093 186.824 202.878 186.874 203.733 186.685C204.59 186.506 205.348 185.971 206.006 185.081C206.589 184.293 206.895 183.45 206.923 182.552C206.952 181.664 206.718 180.78 206.221 179.899C205.725 179.029 204.98 178.227 203.987 177.492C202.97 176.74 201.967 176.245 200.977 176.008C199.982 175.776 199.059 175.799 198.207 176.079C197.351 176.365 196.628 176.907 196.036 177.707C195.648 178.232 195.387 178.777 195.253 179.34C195.119 179.903 195.113 180.46 195.236 181.011C195.359 181.561 195.614 182.076 196.001 182.557L194.506 184.578C193.814 183.889 193.323 183.089 193.034 182.178C192.747 181.276 192.693 180.322 192.872 179.315C193.053 178.318 193.503 177.335 194.221 176.364Z" fill="black"/>
<path d="M192.918 202.326L191.444 200.787L197.566 194.92L199.04 196.458L192.918 202.326ZM199.969 200.998L198.154 202.738L187.362 191.478C186.87 190.965 186.427 190.652 186.033 190.538C185.638 190.434 185.281 190.452 184.962 190.591C184.642 190.74 184.349 190.942 184.082 191.198C183.882 191.389 183.728 191.557 183.62 191.7C183.516 191.849 183.433 191.967 183.371 192.056L181.439 190.78C181.518 190.616 181.645 190.405 181.822 190.147C181.993 189.885 182.248 189.591 182.586 189.267C183.099 188.776 183.707 188.404 184.411 188.153C185.109 187.907 185.836 187.854 186.592 187.996C187.342 188.142 188.046 188.559 188.705 189.246L199.969 200.998Z" fill="black"/>
<path d="M173.198 204.949L178.615 212.963L176.532 214.371L167.368 200.814L169.451 199.406L171.003 201.701L171.144 201.605C170.996 200.702 171.095 199.782 171.439 198.846C171.788 197.916 172.474 197.105 173.498 196.413C174.346 195.841 175.224 195.517 176.134 195.442C177.047 195.373 177.947 195.588 178.833 196.087C179.722 196.591 180.557 197.42 181.336 198.574L187.159 207.188L185.076 208.596L179.349 200.123C178.68 199.134 177.871 198.533 176.92 198.318C175.963 198.107 175.053 198.295 174.188 198.879C173.67 199.229 173.233 199.717 172.876 200.344C172.514 200.975 172.335 201.687 172.34 202.481C172.339 203.279 172.625 204.101 173.198 204.949Z" fill="black"/>
<path d="M162.047 203.482L168.787 218.393L166.574 219.394L165.556 217.141L165.4 217.212C165.462 218.072 165.241 218.893 164.737 219.674C164.232 220.456 163.534 221.048 162.641 221.452C162.472 221.528 162.261 221.62 162.005 221.727C161.75 221.835 161.555 221.912 161.419 221.957L160.366 219.627C160.453 219.612 160.644 219.56 160.94 219.473C161.232 219.396 161.53 219.288 161.834 219.151C162.559 218.823 163.138 218.379 163.57 217.817C163.998 217.265 164.257 216.649 164.348 215.969C164.434 215.298 164.325 214.627 164.021 213.953L159.756 204.518L162.047 203.482Z" fill="black"/>
<path d="M143.842 209.81C145.367 209.413 146.771 209.407 148.053 209.792C149.33 210.187 150.426 210.914 151.341 211.975C152.25 213.044 152.916 214.39 153.339 216.012C153.761 217.634 153.838 219.141 153.569 220.532C153.295 221.932 152.715 223.117 151.831 224.089C150.941 225.069 149.782 225.745 148.352 226.118C147.527 226.332 146.677 226.407 145.801 226.341C144.925 226.276 144.077 226.02 143.256 225.573C142.437 225.133 141.7 224.459 141.045 223.551C140.391 222.642 139.871 221.449 139.486 219.971L139.218 218.94L151.424 215.762L151.972 217.865L142.239 220.399C142.472 221.293 142.858 222.044 143.398 222.652C143.931 223.261 144.577 223.684 145.336 223.92C146.087 224.157 146.903 224.161 147.783 223.932C148.752 223.68 149.528 223.221 150.111 222.555C150.688 221.898 151.067 221.139 151.246 220.278C151.425 219.417 151.401 218.55 151.174 217.677L150.809 216.275C150.498 215.079 150.027 214.119 149.398 213.394C148.764 212.679 148.02 212.201 147.165 211.961C146.312 211.728 145.394 211.74 144.411 211.996C143.772 212.162 143.217 212.402 142.749 212.715C142.274 213.037 141.896 213.429 141.613 213.891C141.331 214.361 141.159 214.897 141.096 215.501L138.574 215.453C138.614 214.592 138.847 213.782 139.274 213.025C139.702 212.275 140.302 211.62 141.073 211.059C141.847 210.506 142.769 210.089 143.842 209.81Z" fill="black"/>
<path d="M132.233 212.39L133.621 228.695L131.201 228.901L130.991 226.438L130.821 226.453C130.593 227.285 130.111 227.985 129.375 228.554C128.639 229.123 127.783 229.449 126.807 229.532C126.623 229.547 126.392 229.563 126.116 229.58C125.839 229.596 125.629 229.603 125.487 229.601L125.27 227.054C125.357 227.068 125.554 227.083 125.862 227.1C126.163 227.124 126.48 227.122 126.813 227.093C127.606 227.026 128.299 226.799 128.893 226.414C129.481 226.036 129.931 225.541 130.243 224.93C130.548 224.327 130.669 223.657 130.606 222.921L129.728 212.604L132.233 212.39Z" fill="black"/>
</svg>
