<svg width="65" height="77" viewBox="0 0 65 77" fill="none" xmlns="http://www.w3.org/2000/svg">
<path d="M61.4266 33.5922L9.085 1.57257C8.20254 1.0322 7.19182 0.737197 6.15724 0.718038C5.12265 0.698879 4.10171 0.956253 3.19984 1.46358C2.30657 1.96303 1.56245 2.69139 1.044 3.57378C0.525554 4.45616 0.251493 5.46071 0.25 6.48413V70.5161C0.256731 72.0512 0.872786 73.5209 1.96274 74.602C3.05269 75.6831 4.52733 76.2871 6.0625 76.2814C7.13401 76.2809 8.18472 75.9855 9.09953 75.4276L61.4266 43.408C62.2677 42.8954 62.9628 42.175 63.4451 41.3161C63.9275 40.4573 64.1808 39.4888 64.1808 38.5037C64.1808 37.5187 63.9275 36.5502 63.4451 35.6913C62.9628 34.8325 62.2677 34.1121 61.4266 33.5994V33.5922ZM6.0625 70.4471V6.53135L58.3132 38.5001L6.0625 70.4471Z" fill="white"/>
</svg>
