<svg width="243" height="243" viewBox="0 0 243 243" fill="none" xmlns="http://www.w3.org/2000/svg">
<path d="M119.655 213.15L123.235 229.878L120.602 229.654L118.141 216.87L117.971 216.856L113.427 229.043L110.752 228.815L108.371 216.082L108.201 216.067L103.618 228.208L100.986 227.984L107.341 212.102L109.804 212.312L112.305 225.141L112.559 225.163L117.192 212.941L119.655 213.15Z" fill="white"/>
<path d="M98.2847 209.593C99.8105 209.99 101.039 210.67 101.97 211.631C102.893 212.598 103.495 213.768 103.776 215.14C104.048 216.517 103.973 218.017 103.551 219.639C103.129 221.261 102.461 222.614 101.548 223.697C100.626 224.785 99.5419 225.538 98.2958 225.955C97.041 226.376 95.6989 226.401 94.2692 226.029C93.4445 225.814 92.6658 225.465 91.9332 224.98C91.2007 224.496 90.585 223.859 90.0863 223.068C89.5857 222.285 89.2711 221.337 89.1424 220.225C89.0137 219.112 89.1417 217.817 89.5265 216.339L89.795 215.308L102.002 218.487L101.454 220.59L91.7216 218.056C91.489 218.949 91.4601 219.793 91.635 220.587C91.803 221.38 92.1606 222.064 92.708 222.639C93.2485 223.213 93.9586 223.614 94.8383 223.843C95.8075 224.096 96.7086 224.073 97.5418 223.777C98.3664 223.485 99.067 223.007 99.6436 222.342C100.22 221.678 100.622 220.909 100.85 220.036L101.215 218.634C101.526 217.438 101.584 216.371 101.388 215.432C101.183 214.498 100.766 213.718 100.137 213.091C99.5055 212.472 98.6984 212.034 97.7156 211.778C97.0764 211.612 96.4758 211.551 95.9138 211.596C95.3431 211.645 94.8213 211.803 94.3484 212.069C93.8738 212.341 93.4618 212.726 93.1124 213.222L90.9336 211.95C91.3886 211.217 91.987 210.624 92.7287 210.172C93.4686 209.726 94.312 209.446 95.2588 209.333C96.2039 209.227 97.2125 209.314 98.2847 209.593Z" fill="white"/>
<path d="M78.7613 202.955L69.598 216.512L67.5856 215.152L69.0174 213.034L68.8408 212.914C68.0692 213.447 67.2334 213.701 66.3333 213.676C65.4293 213.656 64.5359 213.348 63.6533 212.751C62.7588 212.147 62.1517 211.441 61.8318 210.633C61.502 209.827 61.4141 208.949 61.5678 207.999L61.4266 207.903C60.6062 208.369 59.7096 208.573 58.7368 208.515C57.7601 208.464 56.7863 208.11 55.8154 207.454C54.6032 206.635 53.8682 205.585 53.6104 204.305C53.3486 203.031 53.7567 201.596 54.8344 200.002L60.9671 190.928L63.0502 192.336L56.9175 201.409C56.2414 202.41 56.0318 203.31 56.2887 204.109C56.5456 204.909 57.0448 205.559 57.7862 206.06C58.7395 206.704 59.6728 206.915 60.5863 206.692C61.4958 206.475 62.2468 205.929 62.8394 205.052L68.805 196.225L70.9234 197.657L64.6475 206.943C64.1265 207.714 63.957 208.503 64.139 209.312C64.317 210.127 64.8003 210.801 65.5888 211.334C66.1301 211.699 66.7336 211.897 67.3993 211.927C68.059 211.953 68.706 211.807 69.3404 211.49C69.9648 211.175 70.5018 210.685 70.9512 210.02L76.6782 201.547L78.7613 202.955Z" fill="white"/>
<path d="M59.0084 187.721C59.757 188.439 60.3013 189.231 60.6412 190.098C60.9761 190.97 61.0651 191.847 60.908 192.729C60.746 193.617 60.2964 194.445 59.5593 195.214C58.9106 195.891 58.2514 196.312 57.5818 196.477C56.9073 196.647 56.2315 196.639 55.5544 196.452C54.8774 196.265 54.2131 195.973 53.5617 195.575C52.9002 195.177 52.2608 194.751 51.6433 194.297C50.837 193.701 50.1887 193.213 49.6984 192.832C49.198 192.45 48.7888 192.22 48.4706 192.142C48.1474 192.058 47.8457 192.163 47.5656 192.455L47.5066 192.516C46.7793 193.275 46.4218 194.064 46.4342 194.882C46.4414 195.696 46.8629 196.503 47.6987 197.304C48.5652 198.135 49.4265 198.596 50.2824 198.689C51.1383 198.781 51.8726 198.708 52.4854 198.469L53.6185 200.735C52.6229 201.158 51.677 201.324 50.7809 201.232C49.8748 201.141 49.0405 200.883 48.278 200.457C47.5054 200.031 46.8217 199.533 46.2269 198.963C45.8475 198.6 45.4559 198.136 45.0521 197.572C44.6383 197.008 44.3333 196.366 44.1372 195.647C43.936 194.923 43.9494 194.134 44.1774 193.28C44.4054 192.427 44.9691 191.53 45.8684 190.592L53.3283 182.809L55.1435 184.548L53.6102 186.148L53.7025 186.236C54.0713 186.098 54.5393 186.02 55.1066 186.003C55.6738 185.986 56.2942 186.104 56.9676 186.356C57.641 186.607 58.3213 187.063 59.0084 187.721ZM57.1687 189.086C56.4509 188.398 55.7107 187.959 54.9482 187.77C54.1805 187.575 53.4573 187.58 52.7785 187.786C52.0946 187.986 51.5167 188.332 51.0449 188.825L49.4527 190.486C49.6181 190.467 49.8684 190.545 50.2036 190.719C50.5288 190.893 50.8876 191.113 51.2801 191.381C51.6625 191.65 52.0323 191.915 52.3895 192.179C52.7367 192.443 53.02 192.656 53.2394 192.817C53.7701 193.207 54.3069 193.53 54.8498 193.785C55.3827 194.039 55.9049 194.151 56.4167 194.121C56.9183 194.09 57.3903 193.844 57.8326 193.382C58.4371 192.752 58.6608 192.051 58.5038 191.281C58.3367 190.511 57.8917 189.779 57.1687 189.086Z" fill="white"/>
<path d="M44.8262 181.677L42.3504 183.561L42.0464 183.15L31.9307 181.727L30.0809 179.226L40.8179 180.773L40.9446 180.944L44.8262 181.677ZM51.0164 180.014L33.4747 192.988L31.9796 190.966L49.5214 177.993L51.0164 180.014ZM44.8336 171.654L42.1249 181.608L39.6559 181.208L42.9331 169.085L44.8336 171.654Z" fill="white"/>
<path d="M39.7593 161.88C40.4692 163.288 40.7707 164.659 40.664 165.993C40.5478 167.325 40.0675 168.549 39.2232 169.667C38.3693 170.781 37.1941 171.716 35.6974 172.471C34.2007 173.225 32.7441 173.617 31.3276 173.648C29.9016 173.675 28.6205 173.358 27.4844 172.698C26.3387 172.035 25.4333 171.044 24.7683 169.725C24.3846 168.964 24.1325 168.148 24.0121 167.278C23.8916 166.408 23.9633 165.525 24.2271 164.629C24.4846 163.735 24.9883 162.873 25.7383 162.041C26.4883 161.21 27.545 160.45 28.9085 159.763L29.8598 159.283L35.5385 170.546L33.5979 171.525L29.0703 162.545C28.2459 162.96 27.5933 163.496 27.1127 164.152C26.629 164.802 26.3519 165.522 26.2814 166.313C26.2078 167.098 26.3757 167.896 26.785 168.708C27.2358 169.602 27.8479 170.264 28.6211 170.693C29.3848 171.119 30.2066 171.33 31.0864 171.323C31.9662 171.317 32.8088 171.111 33.6142 170.705L34.908 170.053C36.0114 169.496 36.8509 168.835 37.4264 168.067C37.9924 167.297 38.3025 166.468 38.3567 165.582C38.4046 164.699 38.1999 163.804 37.7426 162.897C37.4453 162.307 37.0942 161.816 36.6895 161.423C36.2753 161.028 35.8122 160.74 35.3002 160.561C34.7819 160.385 34.2211 160.329 33.6178 160.395L33.1331 157.919C33.9839 157.777 34.8242 157.834 35.6541 158.092C36.4776 158.353 37.2446 158.801 37.955 159.437C38.6591 160.076 39.2605 160.891 39.7593 161.88Z" fill="white"/>
<path d="M31.8437 142.839L15.6126 144.917L15.3041 142.508L17.8402 142.183L17.8131 141.972C16.9033 141.745 16.1607 141.285 15.5851 140.592C15.0025 139.901 14.6435 139.027 14.5082 137.97C14.3711 136.899 14.5 135.977 14.895 135.203C15.282 134.423 15.883 133.777 16.6981 133.265L16.6765 133.095C15.7849 132.787 15.0394 132.249 14.4398 131.481C13.8332 130.714 13.4554 129.749 13.3066 128.586C13.1207 127.135 13.4231 125.89 14.2137 124.851C14.9973 123.812 16.3436 123.171 18.2527 122.927L29.1157 121.535L29.4351 124.029L18.5721 125.42C17.3745 125.574 16.5605 126.011 16.1301 126.732C15.6997 127.453 15.5414 128.257 15.6551 129.145C15.8012 130.286 16.2596 131.126 17.0303 131.665C17.7939 132.204 18.7006 132.407 19.7502 132.272L30.3173 130.919L30.6421 133.455L19.5255 134.879C18.6026 134.997 17.8977 135.391 17.4108 136.062C16.9169 136.734 16.7304 137.542 16.8513 138.486C16.9342 139.134 17.1844 139.718 17.6018 140.237C18.0182 140.75 18.555 141.139 19.2121 141.406C19.8613 141.667 20.5839 141.746 21.3799 141.644L31.5244 140.345L31.8437 142.839Z" fill="white"/>
<path d="M30.2218 117.111C30.1591 118.587 29.7528 119.867 29.003 120.951C28.2535 122.028 27.2339 122.852 25.9443 123.423C24.6551 123.987 23.166 124.233 21.4772 124.161C19.7742 124.089 18.3007 123.717 17.0568 123.046C15.8131 122.367 14.8636 121.46 14.2081 120.323C13.5529 119.179 13.2567 117.869 13.3194 116.393C13.3821 114.917 13.7882 113.641 14.5377 112.564C15.2875 111.479 16.3106 110.656 17.607 110.092C18.9037 109.522 20.4036 109.273 22.1066 109.345C23.7954 109.417 25.2581 109.792 26.4946 110.47C27.7314 111.141 28.6775 112.048 29.3326 113.192C29.9881 114.329 30.2845 115.635 30.2218 117.111ZM27.9653 117.015C28.0129 115.894 27.7647 114.959 27.2207 114.211C26.6767 113.463 25.9437 112.895 25.0218 112.508C24.1 112.12 23.0926 111.903 21.9999 111.857C20.9071 111.81 19.8815 111.941 18.9229 112.249C17.9644 112.556 17.1789 113.06 16.5662 113.759C15.9536 114.458 15.6235 115.368 15.5759 116.489C15.5283 117.61 15.78 118.545 16.3311 119.293C16.8822 120.042 17.6223 120.61 18.5513 120.998C19.4803 121.386 20.4911 121.603 21.5839 121.649C22.6767 121.696 23.6988 121.565 24.6502 121.257C25.6016 120.949 26.3801 120.445 26.9856 119.746C27.5911 119.047 27.9177 118.136 27.9653 117.015Z" fill="white"/>
<path d="M31.1722 104.824L15.1758 101.376L15.6875 99.0018L18.1037 99.5225L18.1396 99.3559C17.4109 98.8937 16.8824 98.2276 16.5541 97.3577C16.2257 96.4877 16.1648 95.5737 16.3713 94.6156C16.4102 94.435 16.4623 94.2102 16.5276 93.9409C16.5929 93.6716 16.6475 93.469 16.6913 93.3332L19.1907 93.8718C19.1519 93.9507 19.0795 94.1349 18.9735 94.4244C18.8621 94.7055 18.7712 95.0093 18.7009 95.3356C18.5333 96.1132 18.5468 96.8426 18.7414 97.5239C18.9306 98.1968 19.2717 98.7716 19.7647 99.2484C20.2523 99.7167 20.8571 100.029 21.5792 100.184L31.7019 102.366L31.1722 104.824Z" fill="white"/>
<path d="M36.9097 86.4239C36.3218 87.887 35.4917 89.0192 34.4196 89.8207C33.3434 90.613 32.107 91.0614 30.7101 91.166C29.3093 91.2614 27.8313 90.9966 26.276 90.3717C24.7208 89.7467 23.4639 88.9125 22.5054 87.8691C21.543 86.8164 20.9342 85.6457 20.6791 84.3567C20.42 83.0586 20.5658 81.7241 21.1167 80.3534C21.4344 79.5625 21.88 78.8346 22.4535 78.1694C23.0269 77.5043 23.7373 76.9746 24.5846 76.5803C25.4254 76.1833 26.4056 75.9917 27.5253 76.0053C28.645 76.0189 29.9132 76.3104 31.3301 76.8798L32.3186 77.277L27.6156 88.981L25.599 88.1707L29.3487 78.8391C28.492 78.4949 27.6587 78.359 26.8488 78.4316C26.0416 78.4976 25.3178 78.7655 24.6774 79.2353C24.0396 79.6985 23.5513 80.3519 23.2123 81.1955C22.8389 82.1247 22.7465 83.0213 22.9351 83.8855C23.1197 84.7404 23.5049 85.4961 24.0908 86.1525C24.6766 86.8089 25.388 87.3052 26.225 87.6415L27.5694 88.1817C28.716 88.6425 29.7675 88.8354 30.7238 88.7604C31.6762 88.6762 32.5029 88.3616 33.2041 87.8167C33.8987 87.2692 34.4353 86.5242 34.814 85.5818C35.0603 84.969 35.197 84.381 35.2243 83.8179C35.2476 83.2455 35.1575 82.7079 34.9539 82.2051C34.7436 81.6997 34.4146 81.2422 33.9669 80.8326L35.5052 78.833C36.1743 79.3774 36.6863 80.0462 37.0411 80.8394C37.3894 81.63 37.5595 82.502 37.5514 83.4555C37.5367 84.4064 37.3228 85.3959 36.9097 86.4239Z" fill="white"/>
<path d="M53.6993 59.64C52.6858 60.7916 51.5411 61.5439 50.2653 61.897C48.9895 62.2501 47.6774 62.2306 46.3289 61.8385C44.9804 61.4465 43.693 60.7108 42.4668 59.6316C41.2192 58.5336 40.32 57.3354 39.7692 56.0369C39.2178 54.7285 39.0365 53.4241 39.2253 52.1238C39.4135 50.8135 39.9956 49.6038 40.9716 48.4949C41.7318 47.6312 42.5768 46.9936 43.5067 46.582C44.4365 46.1705 45.3841 45.9968 46.3494 46.0611C47.3146 46.1253 48.2281 46.442 49.0896 47.011L47.4286 48.8984C46.7421 48.5496 45.9647 48.4332 45.0965 48.5489C44.2276 48.6546 43.4272 49.1234 42.6952 49.9551C42.0476 50.6908 41.6718 51.5048 41.5677 52.3972C41.4629 53.2795 41.621 54.1802 42.0419 55.0994C42.4622 56.0086 43.1362 56.8715 44.0639 57.6879C45.0129 58.5232 45.9706 59.1012 46.9372 59.422C47.9084 59.7375 48.8302 59.7919 49.7028 59.5853C50.5799 59.3734 51.347 58.8942 52.0039 58.1478C52.4356 57.6573 52.7421 57.1371 52.9234 56.587C53.1048 56.037 53.1575 55.4826 53.0816 54.9239C53.0057 54.3651 52.7954 53.83 52.4508 53.3185L54.1119 51.4312C54.7431 52.176 55.164 53.0147 55.3744 53.9473C55.5842 54.8699 55.5571 55.8253 55.293 56.8134C55.0282 57.7914 54.497 58.7336 53.6993 59.64Z" fill="white"/>
<path d="M54.6692 44.3044L60.8533 51.9632L58.8971 53.5426L45.1905 36.5673L47.1467 34.9878L52.1796 41.221L52.3453 41.0871C52.1128 40.1886 52.1387 39.305 52.4232 38.4363C52.7087 37.5577 53.3516 36.7145 54.3517 35.9069C55.2193 35.2064 56.1196 34.767 57.0528 34.5886C57.9815 34.4048 58.9132 34.5242 59.8479 34.947C60.7837 35.3599 61.6934 36.1133 62.5768 37.2074L69.1088 45.2972L67.1527 46.8767L60.7277 38.9195C59.9112 37.9083 59.0174 37.3383 58.0463 37.2096C57.0762 37.0709 56.1298 37.3741 55.2069 38.1193C54.566 38.6368 54.1006 39.2362 53.8108 39.9175C53.5266 40.5943 53.4478 41.3106 53.5743 42.0665C53.7064 42.818 54.0713 43.5639 54.6692 44.3044Z" fill="white"/>
<path d="M76.388 41.4251C75.4827 41.9308 74.5659 42.2192 73.6376 42.2904C72.7058 42.3553 71.841 42.1835 71.0433 41.775C70.2421 41.3602 69.5817 40.6878 69.0621 39.7577C68.6049 38.9392 68.3955 38.1857 68.4339 37.4972C68.4688 36.8025 68.6746 36.1587 69.0513 35.5659C69.4279 34.9732 69.9019 34.4236 70.4733 33.9173C71.0474 33.4014 71.6419 32.9147 72.2569 32.4573C73.0626 31.8607 73.7196 31.3839 74.2278 31.0267C74.7388 30.6599 75.0785 30.3359 75.2468 30.0548C75.4214 29.7702 75.4099 29.4511 75.2125 29.0977L75.1709 29.0233C74.6583 28.1056 74.0089 27.5329 73.2226 27.305C72.4426 27.0737 71.5472 27.2403 70.5365 27.8049C69.4887 28.3903 68.7953 29.0786 68.4564 29.87C68.1174 30.6613 67.9725 31.385 68.0217 32.0409L65.5227 32.4607C65.4098 31.3848 65.5283 30.4318 65.8782 29.6018C66.2308 28.7622 66.7223 28.0401 67.3528 27.4357C67.986 26.8217 68.6622 26.3137 69.3814 25.9119C69.8403 25.6556 70.3985 25.417 71.0561 25.1961C71.7164 24.9655 72.4191 24.8618 73.1642 24.8849C73.9154 24.9045 74.6659 25.1483 75.4154 25.6163C76.165 26.0843 76.8567 26.8857 77.4906 28.0204L82.7485 37.4325L80.5536 38.6587L79.4729 36.7242L79.3613 36.7865C79.3857 37.1797 79.323 37.6499 79.1732 38.1973C79.0234 38.7447 78.7295 39.3035 78.2914 39.8736C77.8533 40.4438 77.2188 40.9609 76.388 41.4251ZM75.6213 39.2663C76.4894 38.7814 77.1258 38.2021 77.5305 37.5286C77.9414 36.8516 78.1481 36.1585 78.1506 35.4494C78.1593 34.7367 77.9974 34.0828 77.6648 33.4876L76.5426 31.4787C76.5119 31.6422 76.3645 31.8588 76.1002 32.1285C75.8387 32.3885 75.5224 32.6669 75.1512 32.9637C74.7828 33.2508 74.4203 33.5266 74.0636 33.7909C73.7096 34.0456 73.4235 34.2543 73.2052 34.4169C72.6763 34.81 72.2106 35.2288 71.8081 35.6733C71.4083 36.1081 71.1483 36.5747 71.0281 37.0731C70.9106 37.5617 71.0077 38.0851 71.3194 38.6431C71.7455 39.4058 72.3497 39.8248 73.1322 39.9002C73.9174 39.966 74.7471 39.7547 75.6213 39.2663Z" fill="white"/>
<path d="M88.0568 35.3479L82.6054 19.919L84.8957 19.1098L85.719 21.4402L85.8798 21.3835C85.8913 20.5207 86.1814 19.7214 86.75 18.9857C87.3186 18.25 88.065 17.7189 88.9891 17.3923C89.1633 17.3308 89.3821 17.2573 89.6456 17.1717C89.9091 17.0861 90.1102 17.0264 90.2489 16.9924L91.1007 19.4032C91.0132 19.4115 90.8184 19.4464 90.5163 19.508C90.2185 19.5605 89.9122 19.6423 89.5974 19.7535C88.8474 20.0185 88.2334 20.4125 87.7553 20.9355C87.2815 21.4494 86.9709 22.0412 86.8234 22.711C86.6802 23.3717 86.7316 24.0503 86.9777 24.7467L90.4274 34.5103L88.0568 35.3479Z" fill="white"/>
<path d="M105.01 30.536L102.244 14.4078L104.722 13.9829L107.488 30.1111L105.01 30.536ZM103.044 11.5037C102.561 11.5865 102.116 11.4934 101.709 11.2244C101.31 10.9542 101.071 10.5881 100.991 10.1261C100.912 9.66412 101.016 9.23921 101.302 8.85139C101.596 8.46237 101.984 8.22645 102.467 8.14363C102.95 8.06081 103.392 8.15449 103.791 8.42468C104.197 8.69368 104.44 9.05917 104.519 9.52118C104.599 9.98319 104.492 10.4087 104.198 10.7977C103.911 11.1855 103.527 11.4209 103.044 11.5037Z" fill="white"/>
<path d="M126.267 12.6364V14.767L117.787 14.767V12.6364L126.267 12.6364ZM120.258 8.71591L122.772 8.71591V24.3125C122.772 25.0227 122.875 25.5554 123.081 25.9105C123.294 26.2585 123.564 26.4929 123.891 26.6136C124.225 26.7273 124.576 26.7841 124.946 26.7841C125.223 26.7841 125.45 26.7699 125.628 26.7415C125.805 26.706 125.947 26.6776 126.054 26.6563L126.565 28.9148C126.395 28.9787 126.157 29.0426 125.851 29.1065C125.546 29.1776 125.159 29.2131 124.69 29.2131C123.98 29.2131 123.284 29.0604 122.602 28.755C121.927 28.4496 121.366 27.9844 120.919 27.3594C120.478 26.7344 120.258 25.946 120.258 24.9943V8.71591Z" fill="white"/>
<path d="M132.437 35.7074C132.017 35.6353 131.648 35.5361 131.331 35.4097C131.013 35.2903 130.796 35.1883 130.681 35.1037L131.685 33.0277C132.261 33.2849 132.783 33.4321 133.253 33.4693C133.722 33.5066 134.167 33.3703 134.587 33.0605C135.014 32.7589 135.448 32.2244 135.889 31.457L136.567 30.2762L133.383 13.0413L136.071 13.5022L138.319 27.1178L138.487 27.1466L145.143 15.0578L147.831 15.5187L137.816 32.8251C137.366 33.6053 136.866 34.2294 136.317 34.6974C135.767 35.1724 135.169 35.4913 134.521 35.654C133.88 35.818 133.186 35.8358 132.437 35.7074Z" fill="white"/>
<path d="M165.75 40.6101C164.844 40.1044 164.118 39.4749 163.571 38.7217C163.027 37.9623 162.72 37.1359 162.649 36.2424C162.582 35.3427 162.809 34.4278 163.328 33.4977C163.786 32.6793 164.317 32.1059 164.924 31.7776C165.534 31.4431 166.19 31.2808 166.892 31.2907C167.594 31.3006 168.311 31.4161 169.041 31.6372C169.782 31.8556 170.508 32.1066 171.22 32.3905C172.15 32.7638 172.901 33.0732 173.471 33.3187C174.052 33.5615 174.506 33.6809 174.833 33.6769C175.167 33.6763 175.433 33.4993 175.63 33.1458L175.672 33.0714C176.185 32.1538 176.332 31.3005 176.114 30.5115C175.902 29.7259 175.29 29.0509 174.28 28.4863C173.232 27.9009 172.282 27.6714 171.43 27.7977C170.579 27.924 169.887 28.18 169.354 28.5658L167.686 26.6579C168.543 25.9977 169.417 25.5989 170.307 25.4617C171.207 25.3217 172.079 25.3617 172.925 25.5816C173.78 25.7989 174.567 26.1084 175.286 26.5102C175.745 26.7665 176.241 27.1167 176.773 27.5609C177.316 28.0022 177.773 28.5462 178.144 29.1928C178.521 29.8428 178.707 30.6096 178.701 31.4933C178.696 32.377 178.376 33.3861 177.742 34.5208L172.484 43.933L170.289 42.7068L171.37 40.7723L171.258 40.71C170.936 40.9369 170.503 41.13 169.958 41.2895C169.414 41.4489 168.784 41.4916 168.069 41.4175C167.353 41.3434 166.58 41.0742 165.75 40.6101ZM167.186 38.8254C168.054 39.3103 168.881 39.5486 169.667 39.5401C170.458 39.535 171.157 39.3476 171.762 38.9779C172.374 38.6117 172.846 38.1309 173.178 37.5357L174.3 35.5268C174.145 35.5864 173.883 35.5744 173.515 35.4908C173.156 35.4044 172.754 35.281 172.306 35.1206C171.869 34.9575 171.444 34.7933 171.032 34.6282C170.629 34.4603 170.301 34.326 170.048 34.2254C169.436 33.9812 168.836 33.8042 168.246 33.6945C167.666 33.5821 167.133 33.6053 166.645 33.7642C166.167 33.9204 165.773 34.2775 165.461 34.8355C165.035 35.5981 164.995 36.3324 165.341 37.0382C165.697 37.7413 166.312 38.337 167.186 38.8254Z" fill="white"/>
<path d="M182.698 39.2747L176.514 46.9335L174.558 45.354L184.838 32.6225L186.728 34.1484L185.122 36.1377L185.287 36.2716C186.108 35.866 186.98 35.7124 187.905 35.8109C188.834 35.9038 189.779 36.3385 190.741 37.1148C191.603 37.8109 192.214 38.5967 192.575 39.4724C192.941 40.3426 193.015 41.2791 192.799 42.2819C192.587 43.2792 192.044 44.3194 191.169 45.4025L184.637 53.4923L182.681 51.9128L189.106 43.9556C189.914 42.9555 190.283 41.9666 190.214 40.9891C190.15 40.0061 189.665 39.1487 188.758 38.4169C188.134 37.9128 187.467 37.5975 186.756 37.4712C186.051 37.3493 185.348 37.4343 184.647 37.7262C183.946 38.018 183.296 38.5342 182.698 39.2747Z" fill="white"/>
<path d="M190.382 60.1906C189.481 59.167 188.944 58.0357 188.772 56.7969C188.604 55.5533 188.801 54.2926 189.36 53.0149C189.925 51.7325 190.858 50.5188 192.159 49.3739C193.449 48.2383 194.763 47.4742 196.102 47.0815C197.44 46.6888 198.715 46.6594 199.927 46.9933C201.139 47.3272 202.2 48.0113 203.11 49.0456C203.814 49.8453 204.236 50.5944 204.378 51.2929C204.53 51.992 204.546 52.6119 204.426 53.1528C204.316 53.6943 204.215 54.1282 204.124 54.4545L204.264 54.6145L210.31 49.2934L211.971 51.1807L195.593 65.5955L193.988 63.7721L195.876 62.111L195.679 61.8871C195.333 61.9456 194.876 61.997 194.31 62.0414C193.749 62.0811 193.126 61.981 192.442 61.7411C191.763 61.4965 191.077 60.9797 190.382 60.1906ZM192.303 58.9544C192.969 59.7115 193.729 60.1776 194.584 60.3529C195.443 60.5235 196.345 60.435 197.288 60.0875C198.236 59.7354 199.174 59.151 200.102 58.3346C201.019 57.5275 201.704 56.688 202.157 55.8162C202.616 54.9396 202.807 54.0711 202.731 53.2108C202.66 52.3458 202.287 51.5294 201.611 50.7617C200.908 49.9619 200.116 49.4762 199.236 49.3043C198.366 49.1331 197.465 49.2216 196.532 49.5697C195.609 49.9185 194.716 50.4729 193.852 51.2331C192.978 52.0026 192.3 52.835 191.821 53.7304C191.351 54.6264 191.138 55.5236 191.181 56.4221C191.234 57.3212 191.608 58.1654 192.303 58.9544Z" fill="white"/>
<path d="M203.347 77.1993L218.531 71.098L219.437 73.3519L217.064 74.3052L217.144 74.5029C218.081 74.4935 218.916 74.7513 219.647 75.2764C220.386 75.7988 220.953 76.5543 221.35 77.5428C221.753 78.5445 221.861 79.4695 221.673 80.3178C221.495 81.1701 221.076 81.9469 220.417 82.6483L220.48 82.8064C221.421 82.8801 222.278 83.2131 223.052 83.8054C223.832 84.395 224.441 85.2335 224.878 86.3209C225.423 87.6784 225.444 88.9597 224.941 90.1646C224.444 91.3668 223.303 92.3268 221.517 93.0444L211.355 97.1279L210.418 94.7949L220.58 90.7115C221.7 90.2614 222.378 89.6332 222.613 88.827C222.847 88.0208 222.798 87.2025 222.464 86.3721C222.035 85.3045 221.38 84.6072 220.498 84.2802C219.624 83.9506 218.695 83.983 217.713 84.3776L207.828 88.3498L206.875 85.9774L217.274 81.7986C218.137 81.4517 218.72 80.8923 219.022 80.1202C219.331 79.3456 219.308 78.5167 218.953 77.6336C218.709 77.0274 218.32 76.5255 217.785 76.128C217.253 75.7372 216.636 75.4955 215.932 75.4029C215.239 75.3144 214.519 75.4197 213.775 75.7189L204.285 79.5322L203.347 77.1993Z" fill="white"/>
<path d="M211.4 101.688C211.089 100.244 211.159 98.9029 211.612 97.6648C212.066 96.4335 212.845 95.3793 213.949 94.502C215.055 93.6316 216.434 93.0183 218.086 92.6622C219.752 92.3031 221.272 92.2916 222.645 92.6278C224.019 92.971 225.167 93.61 226.088 94.545C227.01 95.4869 227.627 96.6799 227.938 98.124C228.249 99.5681 228.178 100.906 227.724 102.137C227.271 103.375 226.489 104.43 225.376 105.302C224.265 106.181 222.877 106.8 221.21 107.159C219.558 107.515 218.048 107.521 216.68 107.176C215.314 106.838 214.17 106.199 213.248 105.257C212.327 104.322 211.711 103.132 211.4 101.688ZM213.608 101.212C213.844 102.309 214.32 103.151 215.035 103.738C215.75 104.325 216.602 104.69 217.592 104.833C218.582 104.975 219.611 104.932 220.681 104.701C221.75 104.471 222.709 104.086 223.559 103.547C224.41 103.007 225.043 102.322 225.46 101.492C225.876 100.661 225.966 99.6968 225.73 98.5998C225.494 97.5028 225.014 96.6616 224.293 96.0761C223.571 95.4907 222.711 95.1273 221.715 94.9861C220.718 94.8449 219.685 94.8896 218.616 95.12C217.546 95.3504 216.59 95.7345 215.747 96.2722C214.904 96.8099 214.278 97.4935 213.868 98.3228C213.458 99.1522 213.371 100.115 213.608 101.212Z" fill="white"/>
<path d="M213.576 113.819L229.925 113.124L230.028 115.551L227.559 115.656L227.566 115.826C228.388 116.09 229.067 116.601 229.604 117.36C230.141 118.119 230.43 118.989 230.472 119.968C230.48 120.152 230.486 120.383 230.49 120.66C230.495 120.937 230.493 121.147 230.485 121.289L227.931 121.398C227.948 121.312 227.972 121.115 228.002 120.808C228.039 120.508 228.05 120.192 228.036 119.858C228.002 119.063 227.805 118.361 227.445 117.751C227.093 117.147 226.618 116.677 226.02 116.34C225.431 116.009 224.767 115.86 224.029 115.891L213.683 116.33L213.576 113.819Z" fill="white"/>
<path d="M212.66 133.07C212.86 131.506 213.378 130.202 214.214 129.156C215.056 128.118 216.139 127.372 217.465 126.919C218.796 126.474 220.293 126.358 221.956 126.571C223.619 126.784 225.045 127.274 226.236 128.042C227.432 128.819 228.316 129.798 228.888 130.981C229.466 132.172 229.661 133.5 229.473 134.966C229.365 135.811 229.117 136.628 228.73 137.416C228.343 138.204 227.789 138.896 227.068 139.491C226.354 140.087 225.454 140.519 224.367 140.788C223.28 141.057 221.979 141.095 220.465 140.901L219.408 140.765L221.01 128.254L223.166 128.53L221.888 138.505C222.804 138.623 223.645 138.544 224.41 138.27C225.175 138.002 225.808 137.561 226.309 136.945C226.81 136.336 227.118 135.58 227.233 134.679C227.36 133.685 227.224 132.794 226.824 132.006C226.429 131.225 225.866 130.591 225.134 130.103C224.402 129.615 223.588 129.314 222.693 129.2L221.256 129.016C220.03 128.859 218.964 128.937 218.058 129.251C217.157 129.572 216.436 130.085 215.895 130.789C215.361 131.494 215.029 132.35 214.9 133.357C214.817 134.012 214.832 134.616 214.948 135.168C215.069 135.727 215.292 136.225 215.616 136.66C215.947 137.096 216.38 137.456 216.917 137.74L215.932 140.063C215.147 139.704 214.483 139.186 213.94 138.508C213.404 137.831 213.02 137.03 212.787 136.105C212.562 135.181 212.519 134.169 212.66 133.07Z" fill="white"/>
<path d="M203.449 162.65C204.159 161.243 205.082 160.185 206.218 159.477C207.357 158.779 208.627 158.437 210.028 158.451C211.432 158.475 212.882 158.864 214.379 159.619C215.875 160.373 217.057 161.311 217.924 162.432C218.793 163.563 219.301 164.781 219.446 166.087C219.594 167.402 219.335 168.719 218.67 170.039C218.286 170.8 217.781 171.487 217.153 172.101C216.525 172.715 215.772 173.183 214.895 173.504C214.023 173.828 213.03 173.936 211.916 173.827C210.801 173.719 209.562 173.321 208.199 172.633L207.247 172.154L212.926 160.891L214.867 161.869L210.339 170.849C211.164 171.265 211.982 171.471 212.795 171.467C213.605 171.47 214.349 171.264 215.027 170.851C215.702 170.443 216.244 169.833 216.653 169.022C217.104 168.128 217.272 167.242 217.158 166.365C217.046 165.497 216.726 164.712 216.198 164.008C215.67 163.304 215.004 162.749 214.198 162.343L212.904 161.691C211.801 161.135 210.77 160.853 209.81 160.847C208.854 160.85 208.004 161.093 207.259 161.577C206.521 162.064 205.923 162.76 205.465 163.667C205.168 164.257 204.982 164.831 204.907 165.39C204.835 165.958 204.879 166.502 205.04 167.02C205.206 167.541 205.495 168.025 205.907 168.471L204.204 170.333C203.584 169.734 203.13 169.024 202.844 168.204C202.564 167.386 202.469 166.503 202.558 165.554C202.653 164.608 202.95 163.64 203.449 162.65Z" fill="white"/>
<path d="M210.958 182.683L203.248 181.857L206.296 188.987L204.573 191.317L201.137 182.204L191.417 181.587L193.14 179.257L200.576 179.881L197.802 172.953L199.525 170.623L203.012 179.668L212.682 180.354L210.958 182.683Z" fill="white"/>
<path d="M185.788 178.603L201.356 194.847L199.603 196.528L197.804 194.651L197.589 194.858C197.652 195.19 197.718 195.629 197.787 196.173C197.855 196.727 197.787 197.343 197.582 198.022C197.376 198.711 196.889 199.424 196.12 200.161C195.125 201.114 194.01 201.706 192.774 201.936C191.539 202.166 190.271 202.029 188.97 201.524C187.67 201.019 186.425 200.146 185.236 198.905C184.037 197.654 183.21 196.366 182.756 195.04C182.307 193.719 182.218 192.447 182.491 191.222C182.768 190.002 183.398 188.92 184.383 187.977C185.142 187.249 185.87 186.793 186.567 186.607C187.269 186.426 187.898 186.379 188.454 186.466C189.014 186.558 189.464 186.648 189.804 186.736L189.958 186.588L183.972 180.343L185.788 178.603ZM193.91 190.65C193.055 189.758 192.17 189.096 191.255 188.665C190.345 188.239 189.454 188.074 188.583 188.171C187.717 188.274 186.92 188.674 186.192 189.371C185.433 190.099 184.991 190.906 184.867 191.792C184.743 192.689 184.879 193.601 185.276 194.528C185.673 195.466 186.275 196.355 187.081 197.196C187.877 198.027 188.722 198.653 189.618 199.074C190.513 199.505 191.403 199.669 192.29 199.567C193.176 199.476 194.003 199.061 194.772 198.324C195.511 197.616 195.952 196.835 196.095 195.979C196.244 195.128 196.127 194.246 195.745 193.334C195.367 192.427 194.756 191.532 193.91 190.65Z" fill="white"/>
<path d="M172.767 197.182C174.074 196.299 175.396 195.826 176.733 195.762C178.068 195.708 179.343 196.029 180.559 196.725C181.773 197.43 182.85 198.477 183.788 199.866C184.727 201.255 185.301 202.65 185.511 204.051C185.719 205.462 185.567 206.773 185.057 207.984C184.545 209.204 183.677 210.228 182.453 211.055C181.747 211.533 180.97 211.886 180.122 212.116C179.275 212.346 178.39 212.387 177.467 212.239C176.548 212.097 175.628 211.707 174.708 211.069C173.788 210.431 172.901 209.479 172.046 208.214L171.449 207.331L181.9 200.268L183.117 202.069L174.784 207.7C175.301 208.465 175.916 209.044 176.627 209.438C177.333 209.835 178.083 210.018 178.877 209.988C179.664 209.961 180.435 209.693 181.188 209.184C182.018 208.623 182.596 207.932 182.924 207.111C183.25 206.299 183.354 205.457 183.236 204.585C183.118 203.713 182.807 202.904 182.302 202.156L181.49 200.956C180.798 199.932 180.035 199.184 179.201 198.71C178.365 198.247 177.504 198.044 176.618 198.103C175.735 198.168 174.874 198.485 174.032 199.053C173.485 199.423 173.042 199.834 172.704 200.285C172.365 200.746 172.138 201.242 172.025 201.773C171.917 202.309 171.933 202.872 172.075 203.462L169.68 204.258C169.431 203.432 169.381 202.591 169.531 201.735C169.686 200.885 170.033 200.068 170.574 199.282C171.118 198.503 171.85 197.803 172.767 197.182Z" fill="white"/>
<path d="M167.355 212.172L163.301 203.202L165.592 202.167L172.332 217.078L170.119 218.078L169.065 215.748L168.871 215.836C168.864 216.751 168.608 217.599 168.104 218.381C167.603 219.169 166.789 219.817 165.663 220.326C164.654 220.782 163.677 220.975 162.732 220.903C161.791 220.837 160.921 220.482 160.123 219.837C159.328 219.199 158.643 218.246 158.07 216.977L153.787 207.503L156.078 206.467L160.291 215.786C160.82 216.958 161.537 217.733 162.441 218.112C163.348 218.497 164.332 218.449 165.393 217.97C166.124 217.639 166.706 217.185 167.139 216.607C167.565 216.033 167.806 215.367 167.861 214.609C167.916 213.852 167.747 213.039 167.355 212.172Z" fill="white"/>
<path d="M141.846 223.605L143.87 222.417C144.102 222.746 144.397 223.047 144.755 223.321C145.107 223.603 145.54 223.799 146.053 223.907C146.565 224.016 147.176 223.978 147.884 223.794C148.853 223.542 149.602 223.108 150.132 222.493C150.656 221.887 150.83 221.243 150.653 220.563C150.496 219.958 150.151 219.538 149.62 219.302C149.089 219.066 148.326 218.953 147.33 218.962L144.829 218.997C143.324 219.022 142.132 218.771 141.253 218.244C140.377 217.723 139.794 216.91 139.506 215.803C139.27 214.896 139.32 214.017 139.656 213.166C139.985 212.317 140.56 211.566 141.381 210.912C142.201 210.258 143.227 209.771 144.457 209.45C146.072 209.03 147.5 209.032 148.741 209.458C149.982 209.883 150.919 210.733 151.552 212.006L149.393 213.185C148.951 212.39 148.368 211.859 147.646 211.592C146.916 211.327 146.053 211.324 145.057 211.584C143.922 211.879 143.085 212.354 142.543 213.009C141.997 213.672 141.812 214.344 141.989 215.025C142.132 215.575 142.445 215.985 142.926 216.256C143.41 216.534 144.074 216.662 144.92 216.64L147.72 216.571C149.26 216.537 150.464 216.792 151.332 217.337C152.195 217.89 152.769 218.713 153.054 219.806C153.287 220.699 153.241 221.555 152.919 222.373C152.589 223.193 152.039 223.912 151.268 224.531C150.49 225.152 149.545 225.607 148.431 225.897C146.864 226.305 145.544 226.282 144.472 225.827C143.392 225.374 142.517 224.634 141.846 223.605Z" fill="white"/>
<path d="M129.142 212.365C130.713 212.232 132.097 212.463 133.296 213.06C134.488 213.664 135.445 214.566 136.167 215.766C136.883 216.974 137.312 218.413 137.454 220.083C137.596 221.753 137.417 223.251 136.917 224.577C136.41 225.91 135.639 226.981 134.603 227.789C133.56 228.605 132.303 229.075 130.831 229.2C129.982 229.273 129.131 229.203 128.279 228.99C127.427 228.777 126.634 228.381 125.901 227.802C125.168 227.23 124.555 226.441 124.063 225.435C123.571 224.43 123.261 223.166 123.131 221.644L123.041 220.583L135.609 219.513L135.793 221.679L125.773 222.531C125.851 223.451 126.105 224.257 126.534 224.947C126.957 225.638 127.522 226.164 128.23 226.524C128.93 226.885 129.734 227.027 130.64 226.95C131.637 226.865 132.48 226.544 133.166 225.987C133.847 225.437 134.348 224.753 134.67 223.934C134.993 223.115 135.116 222.257 135.039 221.358L134.916 219.914C134.811 218.683 134.51 217.657 134.013 216.837C133.509 216.025 132.856 215.428 132.053 215.047C131.252 214.673 130.345 214.53 129.333 214.616C128.675 214.672 128.088 214.814 127.573 215.044C127.052 215.28 126.612 215.603 126.255 216.011C125.898 216.426 125.638 216.926 125.474 217.51L122.996 217.037C123.181 216.194 123.547 215.436 124.096 214.762C124.645 214.095 125.347 213.551 126.202 213.129C127.058 212.714 128.038 212.459 129.142 212.365Z" fill="white"/>
</svg>
